<?xml version="1.0" encoding="UTF-8"?>
<svg id="Layer_1" data-name="Layer 1" xmlns="http://www.w3.org/2000/svg" viewBox="0 0 1080 1080">
  <defs>
    <style>
      .cls-1 {
        fill: #fff;
      }
    </style>
  </defs>
  <path class="cls-1" d="m505.41,365.39c-3.08,2.76-6.01,5.69-9.25,8.24-42.23,33.34-45.38,86.8-27.91,128.36,14.78,35.14,40.59,62.05,67.44,87.95,26.78,25.83,55.07,50.18,80.87,76.94,15.2,15.76,28.87,33.8,39.69,52.83,29.86,52.49,24.6,97.49-14.14,143.73-6.18,7.37-12.45,14.69-18.23,22.37-17.61,23.42-19.53,48.07-5.13,73.78,2.13,3.8,4.26,7.6,7.36,13.13-16.71-7.12-26.02-18.8-32.52-32.96-11.84-25.81-8.43-51.29,2.78-76.27,4.46-9.94,9.13-19.86,14.63-29.25,16.02-27.3,13.97-53.68-5.17-77.95-13.25-16.8-28.34-32.21-43.27-47.6-28.79-29.68-59.37-57.74-86.76-88.64-28.52-32.17-47.49-70.23-52.65-113.53-4.64-38.91-.35-76.55,25.64-108.32,14.55-17.78,33.06-29.93,56.61-32.8h0Z"/>
  <path class="cls-1" d="m331.22,413.47c-14.13-10.36-17.85-29.66-9.81-48.27,6.91-15.98,19.15-27.33,33.55-36.09,47.56-28.96,98.21-49.73,154.03-56.35,12.4-1.47,24.78-3.38,37.02-5.82,23.91-4.77,42.58-17.08,53.93-39.3,1.6-3.14,3.5-6.12,5.35-9.13.24-.4.98-.49,2.36-1.13,2.35,21.02-5.1,37.89-19.34,52.16-20.35,20.41-46.2,30.47-73.09,38.8-49.86,15.43-99.63,31.14-149.31,47.1-6.6,2.12-13.01,5.69-18.64,9.79-16.44,11.97-20.2,23.74-16.04,48.25h0Z"/>
  <path class="cls-1" d="m495.37,418.2c6.5,35.19,23.06,63.38,46.71,87.29,14.86,15.02,30.98,28.81,46.63,43.04,30.92,28.11,61.08,56.84,79.91,95.12,12.1,24.58,17.03,50.21,11.85,77.4-.26,1.38-.84,2.7-2.92,3.95-.7-6.81-.98-13.7-2.16-20.42-6.46-36.73-27.58-64.47-55.69-87.13-23.18-18.69-48.26-35.05-71.12-54.1-29.92-24.93-52.34-55.29-60.16-94.69-3.58-18.05-1.86-35.24,6.95-50.45h0Z"/>
  <path class="cls-1" d="m347.98,653.28c3.12-2.22,6.7-4,9.27-6.73,17.16-18.24,23.72-39.35,15.55-63.69-6.22-18.51-12.86-36.88-19.71-55.17-11.25-29.99-16.45-60.56-9.7-92.36,6.02-28.37,25.07-46.24,47.8-61.06l2.28,1.73c-3.24,4-6.32,8.13-9.75,11.97-20.23,22.66-25.54,48.32-14.75,76.73,6.02,15.85,13.2,31.26,19.81,46.88,12.09,28.56,19.1,58.03,12.32,88.99-5.54,25.29-17.75,46.04-44.31,54.66-2.06.67-4.3.78-6.46,1.14-.78-1.04-1.57-2.07-2.35-3.11h0Z"/>
  <path class="cls-1" d="m603.78,107.29c16.5,34.72-1.15,93.49-36.44,123.77-42.33,36.32-104.38,43.45-145.4,15.08,93.83-3.99,153.96-50.37,181.84-138.86h0Z"/>
  <path class="cls-1" d="m460.56,657.61c1.39,2.74,1.66,3.02,1.65,3.27-2.01,30.42,16.49,45.6,41.16,57.22,17.62,8.3,35.63,16.7,51.26,28.09,37.3,27.17,37.71,82.59,2,108.26-10.7,7.69-22.65,11.45-36.17,9.89,4.46-4.9,8.52-9.66,12.89-14.13,29.13-29.82,25.57-66.24-9.01-89.98-16.11-11.06-33.43-20.59-48.39-32.99-17.35-14.38-27.39-33.13-20.94-56.97,1.03-3.8,3.16-7.31,5.55-12.67h0Z"/>
  <path class="cls-1" d="m683.63,476.39c-53.28,43.23-111.03,42.07-135.73-2.66,6.8,4.52,12.87,8.99,19.34,12.79,32.31,18.96,63.08,15.34,92.13-7.11,28.7-22.19,48.38-51.83,66.83-82.38,7.44-12.32,14.61-24.79,23.8-36.43-4.3,10.85-7.63,22.23-13.12,32.44-11.49,21.4-24.15,42.17-36.23,63.25-1.7,2.96-4.06,6.19-4.11,9.33-.61,36.69,1.47,73.06,14.99,107.8,1.39,3.58,3.07,7.05,4.69,10.53,1.54,3.3,3.18,6.55,3.95,10.19-13.02-16.72-20.6-35.99-25.14-56.3-4.51-20.14-7.6-40.6-11.41-61.45h0Z"/>
  <path class="cls-1" d="m391.81,481.11c-2.77-9.75-6.97-19.35-8.06-29.29-3.69-33.28,11.5-58.85,35.39-80.2,23.94-21.4,53.16-33.09,82.67-44.06,30.06-11.17,60.4-21.63,87.26-39.81.99-.67,2.24-.96,3.36-1.43.56.67,1.11,1.34,1.66,2.01-6.02,5.43-11.28,12.28-18.22,16.05-22.45,12.2-45.06,24.33-68.47,34.52-27.91,12.16-56.93,21.89-80.73,41.82-23.73,19.88-39.56,43.82-36.88,76.35.64,7.8,3.21,15.43,4.89,23.15-.96.29-1.92.58-2.87.88h0Z"/>
  <path class="cls-1" d="m657.42,416.75c-.97-.4-1.94-.79-2.91-1.18-.32-.12-.64-.25-.96-.37-.97-.38-1.94-.75-2.91-1.11-1.69-.62-3.38-1.21-5.07-1.77-3.8-1.26-7.59-2.35-11.38-3.24-7.96-1.89-15.89-2.93-23.78-2.93-4.7,0-9.4.37-14.08,1.15-1.04.18-2.08.37-3.12.58-1.04.21-2.08.45-3.12.71s-2.08.53-3.11.83c-3.12.9-6.23,1.99-9.34,3.29-1.04.44-2.07.89-3.11,1.37-2.07.96-4.14,2.01-6.21,3.16-1.04.57-2.07,1.17-3.11,1.8-1.55.94-3.09,1.93-4.64,2.98,2.27,2.91,4.76,5.58,7.44,7.99,2.05,1.85,4.2,3.55,6.45,5.07,1.66,1.15,3.38,2.21,5.14,3.19.86.47,1.74.93,2.62,1.36.34.17.68.34,1.03.5.9.42,1.8.82,2.72,1.2,1.22.5,2.46.97,3.72,1.4.85.29,1.7.56,2.56.81,23.57,6.93,51.51.19,71.98-23.81-2.28-1.04-4.54-2.04-6.81-2.98Zm-16.47,10.72h-59.43c-.05-.96-.08-1.9-.11-2.83h59.54v2.83Z"/>
  <path class="cls-1" d="m657.42,416.75c-.97-.4-1.94-.8-2.91-1.18-.32-.12-.64-.25-.96-.37-.97-.39-1.94-.75-2.91-1.11-1.69-.62-3.38-1.21-5.07-1.77-3.8-1.26-7.59-2.35-11.38-3.24-7.96-1.89-15.89-2.93-23.78-2.93-4.7,0-9.4.37-14.08,1.15-1.04.17-2.08.37-3.12.58-1.04.21-2.08.45-3.12.71-1.04.25-2.08.53-3.11.83-3.12.9-6.23,1.99-9.34,3.29-1.04.43-2.08.89-3.11,1.37-2.07.95-4.14,2.01-6.21,3.16-1.04.57-2.07,1.17-3.11,1.8-1.55.93-3.1,1.92-4.65,2.97h.01c2.27,2.92,4.76,5.59,7.44,8,2.05,1.85,4.2,3.54,6.45,5.07,1.66,1.15,3.38,2.21,5.14,3.19.86.47,1.74.93,2.62,1.36.34.17.68.34,1.03.5.9.42,1.8.82,2.72,1.2,1.22.5,2.46.97,3.72,1.4.85.29,1.7.56,2.56.81,23.57,6.93,51.51.19,71.98-23.81-2.28-1.04-4.54-2.04-6.81-2.98Zm-16.47,10.72h-59.43c-.05-.96-.08-1.9-.11-2.83h59.54v2.83Z"/>
  <path class="cls-1" d="m762.77,203.3c-24.72-10.77-46.68-2.67-68.36,8.39-12.83,6.54-25.86,12.64-38.87,18.82-5.84,2.78-11.58,2.8-14.77-3.82-2.99-6.26-1.12-11.99,4.26-16.23,2.21-1.74,5.01-2.83,7.68-3.79,18.67-6.7,37.65-12.59,55.98-20.09,6.39-2.6,12.36-3.77,17.89-3.77,15.29,0,27.34,8.85,36.19,20.48Z"/>
  <path class="cls-1" d="m726.58,182.82c15.29,0,27.34,8.85,36.19,20.48-24.72-10.77-46.68-2.67-68.36,8.39-12.83,6.54-25.86,12.64-38.87,18.82-5.84,2.78-11.58,2.8-14.77-3.82-2.99-6.26-1.12-11.99,4.26-16.23,2.21-1.74,5.01-2.83,7.68-3.79,18.67-6.7,37.65-12.59,55.98-20.09,6.39-2.6,12.36-3.76,17.89-3.76h0Z"/>
  <path class="cls-1" d="m437.58,712.07c-13.33-1.55-20.09-7.71-21.01-19.56-.66-8.46-.84-17.76,1.92-25.56,10.69-30.18,11.09-60.13,1.51-90.46-.82-2.59-1.13-5.34-2.09-10.04,17.51,13.57,25.38,30.09,27.64,49.51,1.89,16.27-1.2,31.87-7.7,46.84-1.28,2.94-2.54,5.88-3.86,8.79-6.05,13.41-10.07,26.73,3.59,40.48h0Z"/>
  <path class="cls-1" d="m740.3,239.34c-.64,4.95-1.23,9.56-1.9,14.8,4.01.31,7.4.57,11.9.92-2.48,3.18-4.48,5.76-7.05,9.07,3.62,1.11,6.78,2.07,10.16,3.11-18.95,23.68-61.66,27.26-94.05,8.8,13.61-4.5,28.21-8.08,41.69-14.15,13.31-5.99,25.48-14.51,39.24-22.55h0Z"/>
  <path class="cls-1" d="m630.75,343.56c-12.79-20.94-9.46-41.65-2.73-60.49.84,18.67,1.77,39.27,2.73,60.49h0Z"/>
  <path class="cls-1" d="m591.24,356.96c3.96,4.19,7.92,8.38,11.87,12.56-.44,1-.87,2-1.31,2.99-3.72-.99-8.48-.94-10.88-3.28-2.32-2.28-2.23-7.03-3.19-10.69,1.17-.53,2.34-1.05,3.5-1.58h0Z"/>
  <path class="cls-1" d="m636.85,365.05c-3.57,2.63-7.14,5.27-10.72,7.9-1.21-1.71-3.79-4.47-3.41-4.97,2.71-3.58,5.71-7.16,9.35-9.68,1.24-.86,4.58,1.3,6.97,2.09-.73,1.56-1.46,3.11-2.19,4.67h0Z"/>
</svg>